<svg viewBox="0 0 24 24" xmlns="http://www.w3.org/2000/svg"><path d="M19.586 0c-.818 0-1.508.19-2.073.565-.563.377-.97.936-1.213 1.68a3.193 3.193 0 0 0-.112.437 8.365 8.365 0 0 0-.078.53 9 9 0 0 0-.05.727c-.01.282-.013.621-.013 1.016a31.121 31.121 0 0 0 .014 1.017 9 9 0 0 0 .05.727 7.946 7.946 0 0 0 .077.53h-.005a3.334 3.334 0 0 0 .113.438c.245.743.65 1.303 1.214 1.68.565.376 1.256.564 2.075.564.8 0 1.536-.213 2.105-.603.57-.39.94-.916 1.175-1.65.076-.235.135-.558.177-.93a10.9 10.9 0 0 0 .043-1.207v-.82c0-.095-.047-.142-.14-.142h-3.064c-.094 0-.14.047-.14.141v.956c0 .094.046.14.14.14h1.666c.056 0 .084.03.084.086 0 .36 0 .62-.036.865-.038.244-.1.447-.147.606-.108.385-.348.664-.638.876-.29.212-.738.35-1.227.35-.545 0-.901-.15-1.21-.353-.306-.203-.517-.454-.67-.915a3.136 3.136 0 0 1-.147-.762 17.366 17.366 0 0 1-.034-.656c-.01-.26-.014-.572-.014-.939a26.401 26.401 0 0 1 .014-.938 15.821 15.821 0 0 1 .035-.656 3.19 3.19 0 0 1 .148-.76 1.89 1.89 0 0 1 .742-1.01c.344-.244.593-.352 1.137-.352.508 0 .815.096 1.144.303.33.207.528.492.683.869.033.077.086.108.166.086l1.064-.451c.076-.028.1-.09.067-.16A3.293 3.293 0 0 0 21.68.61C21.106.203 20.402 0 19.586 0zM8.217 5.836c-1.69 0-3.036.086-4.297.086-1.146 0-2.291 0-3.007-.029v.831l1.088.2c.744.144.888.316.888 1.767v8.55c0 1.451-.144 1.622-.888 1.767l-1.088.2v.83c.617-.029 1.72-.086 2.834-.086 1.088 0 2.406.057 2.95.086v-.83l-1.446-.2c-.773-.115-.888-.316-.888-1.767v-3.395c.417.029 1.719.029 2.421.029 1.976 3.062 3.827 5.017 4.9 5.017.775 0 1.585-.28 2.026-.734l-.2-.616c-.257.086-.573.144-.974.144-1.316 0-2.891-1.678-4.897-4.928 2.213-.833 3.677-2.24 3.677-4.116 0-2.325-1.905-3.806-4.702-3.806zm-.573.72c2.091 0 3.264 1.35 3.264 3.207 0 1.833-1.517 3.148-3.78 3.148-.66 0-1.174-.029-1.775-.086v-6.24c.575 0 1.373-.03 2.291-.03z"/></svg>
